<?xml version="1.0" encoding="UTF-8"?>
<!DOCTYPE svg PUBLIC "-//W3C//DTD SVG 1.1//EN" "http://www.w3.org/Graphics/SVG/1.1/DTD/svg11.dtd">
<!-- Creator: CorelDRAW -->
<svg xmlns="http://www.w3.org/2000/svg" xml:space="preserve" width="5mm" height="3.8737mm" version="1.1" style="shape-rendering:geometricPrecision; text-rendering:geometricPrecision; image-rendering:optimizeQuality; fill-rule:evenodd; clip-rule:evenodd"
viewBox="0 0 2.64 2.05"
 xmlns:xlink="http://www.w3.org/1999/xlink"
 xmlns:xodm="http://www.corel.com/coreldraw/odm/2003">
 <defs>
  <style type="text/css">
   <![CDATA[
    .fil0 {fill:black}
   ]]>
  </style>
 </defs>
 <g id="Camada_x0020_1">
  <metadata id="CorelCorpID_0Corel-Layer"/>
  <g id="_2531890206688">
   <path class="fil0" d="M0.54 0.6c0.02,0.01 0.1,0.06 0.11,0.07 0.04,0.01 0.08,-0.04 0.14,-0.04l-0 0.45 -0.13 0 0 0.11 1.19 0 0 -0.11 -0.13 -0c-0.01,-0.07 -0,-0.17 -0,-0.24l-0 -0.22 0.04 0.01c0.04,0.02 0.06,0.09 0.2,-0.03l-0.26 -0.22c-0.07,-0.05 -0.05,-0.07 -0.05,-0.26l0 -0.08 -0.17 0 0 0.16c-0.04,-0.02 -0.18,-0.16 -0.24,-0.18l-0.59 0.49c-0.01,0.01 -0.01,0.01 -0.03,0.02 -0.02,0.01 -0.02,0.02 -0.04,0.04l-0.03 0.03c-0.01,0.01 -0.01,0.01 -0.01,0.02zm0.57 0.48l0.28 0 0.01 -0.37 -0.28 0 0 0.37z"/>
   <path class="fil0" d="M-0 1.46c0.02,0.01 0.1,0.06 0.11,0.07 0.04,0.01 0.08,-0.04 0.14,-0.04l-0 0.45 -0.13 0 0 0.11 1.19 0 0 -0.11 -0.13 -0c-0.01,-0.07 -0,-0.17 -0,-0.24l-0 -0.22 0.04 0.01c0.04,0.02 0.06,0.09 0.2,-0.03l-0.26 -0.22c-0.07,-0.05 -0.05,-0.07 -0.05,-0.26l0 -0.08 -0.17 0 0 0.16c-0.04,-0.02 -0.18,-0.16 -0.24,-0.18l-0.59 0.49c-0.01,0.01 -0.01,0.01 -0.03,0.02 -0.02,0.01 -0.02,0.02 -0.04,0.04l-0.03 0.03c-0.01,0.01 -0.01,0.01 -0.01,0.02zm0.57 0.48l0.28 0 0.01 -0.37 -0.28 0 0 0.37z"/>
   <path class="fil0" d="M1.22 1.21c0.02,0.01 0.1,0.06 0.11,0.07 0.04,0.01 0.08,-0.04 0.14,-0.04l-0 0.45 -0.13 0 0 0.11 1.19 0 0 -0.11 -0.13 -0c-0.01,-0.07 -0,-0.17 -0,-0.24l-0 -0.22 0.04 0.01c0.04,0.02 0.06,0.09 0.2,-0.03l-0.26 -0.22c-0.07,-0.05 -0.05,-0.07 -0.05,-0.26l0 -0.08 -0.17 0 0 0.16c-0.04,-0.02 -0.18,-0.16 -0.24,-0.18l-0.59 0.49c-0.01,0.01 -0.01,0.01 -0.03,0.02 -0.02,0.01 -0.02,0.02 -0.04,0.04l-0.03 0.03c-0.01,0.01 -0.01,0.01 -0.01,0.02zm0.57 0.48l0.28 0 0.01 -0.37 -0.28 0 0 0.37z"/>
  </g>
 </g>
</svg>
