<?xml version="1.0" encoding="UTF-8"?>
<!DOCTYPE svg PUBLIC "-//W3C//DTD SVG 1.1//EN" "http://www.w3.org/Graphics/SVG/1.1/DTD/svg11.dtd">
<!-- Creator: CorelDRAW -->
<svg xmlns="http://www.w3.org/2000/svg" xml:space="preserve" width="47px" height="44px" version="1.1" style="shape-rendering:geometricPrecision; text-rendering:geometricPrecision; image-rendering:optimizeQuality; fill-rule:evenodd; clip-rule:evenodd"
viewBox="0 0 0.18 0.17"
 xmlns:xlink="http://www.w3.org/1999/xlink"
 xmlns:xodm="http://www.corel.com/coreldraw/odm/2003">
 <defs>
  <style type="text/css">
   <![CDATA[
    .fil0 {fill:#1ABC9C}
   ]]>
  </style>
 </defs>
 <g id="Camada_x0020_1">
  <metadata id="CorelCorpID_0Corel-Layer"/>
  <g id="_2528882326288">
   <path class="fil0" d="M0.06 0.09l0 0.08 0.02 0 0 -0.03c0,0 0.01,-0.01 0.01,-0.01l0 0c0,0 0.01,0.01 0.01,0.01l0 0.03 0.02 0 0 -0.08c0,0 0,0 -0.01,0 0,0 0,0 0,-0.01l-0.01 -0.02c0,0 -0.01,-0.01 -0.01,-0.01 0,0 -0.01,0.01 -0.01,0.01 0,0 0,0.01 -0.01,0.01l0 0.01c0,0 -0.01,0.01 -0.01,0.01z"/>
   <path class="fil0" d="M0.02 0.11l0 0.02 -0.02 0 0 0.04 0.03 0c0,-0.01 0,-0.01 0,-0.02 0,0 0,0 0,-0.01 0.01,0 0.01,0.01 0.01,0.01 0,0.01 0,0 0,0.02l0.02 0 0 -0.08c0,0 -0.01,0 -0.01,0l-0.03 0.02c0,0 0,0 0,0z"/>
   <path class="fil0" d="M0.12 0.17l0.02 0c0,-0.02 -0.01,-0.01 0,-0.02 0,0 0,-0.01 0,-0.01 0,0.01 0.01,0.01 0.01,0.02l0 0.01 0.03 0 0 -0.04 -0.02 0 0 -0.02c0,0 0,0 0,0l-0.04 -0.02 0 0.08z"/>
   <path class="fil0" d="M0.09 0.01l-0.01 0 0 0 0.01 0 0 0.01c0,0.01 -0.01,0.01 -0.01,0.02 0,0 0,0 0,0 -0.01,0 -0.01,0 -0.01,0.01l-0.02 0.02c0,0.01 0,0.01 0,0.01l-0.02 0.01c-0.01,0 -0.01,0 -0.02,0.01l0 0.01c0,-0.01 0,-0.01 0,-0.01l0.05 -0.02c0,0 0,0 0,0l0.03 -0.05 0.02 0.03c0,0 0,0.01 0,0.01l0.01 0.01c0,0 0,0.01 0.01,0.01l0.02 0.01c0.01,0 0.01,0 0.01,0l0.01 0.01 0 -0.01c-0.01,-0.01 -0.03,-0.02 -0.04,-0.02 -0.01,0 -0.01,-0.01 -0.01,-0.01 -0.01,-0.01 -0.01,-0.02 -0.01,-0.02 -0.01,-0.01 -0.01,-0.01 -0.01,-0.01 0,0 0,0 0,0 0,-0.01 0,-0.01 -0.01,-0.01 0,0 0,0 0,-0.01l0 -0.01 0.01 0 0 0 -0.01 0 0 -0.01 0 0 0 0.01z"/>
  </g>
 </g>
</svg>
