<?xml version="1.0" encoding="UTF-8"?>
<!DOCTYPE svg PUBLIC "-//W3C//DTD SVG 1.1//EN" "http://www.w3.org/Graphics/SVG/1.1/DTD/svg11.dtd">
<!-- Creator: CorelDRAW -->
<svg xmlns="http://www.w3.org/2000/svg" xml:space="preserve" width="37px" height="50px" version="1.1" style="shape-rendering:geometricPrecision; text-rendering:geometricPrecision; image-rendering:optimizeQuality; fill-rule:evenodd; clip-rule:evenodd"
viewBox="0 0 0.17 0.23"
 xmlns:xlink="http://www.w3.org/1999/xlink"
 xmlns:xodm="http://www.corel.com/coreldraw/odm/2003">
 <defs>
  <style type="text/css">
   <![CDATA[
    .fil0 {fill:#1ABC9C}
   ]]>
  </style>
 </defs>
 <g id="Camada_x0020_1">
  <metadata id="CorelCorpID_0Corel-Layer"/>
  <path class="fil0" d="M0.06 0c-0.08,0.01 -0.06,0.04 -0.06,0.05 0.01,0.01 0.01,0.02 0,0.03 -0.01,0.04 0.14,0.05 0.16,0.02 0.02,-0.02 -0.01,-0.02 0.01,-0.06 0.01,-0.04 -0.08,-0.04 -0.11,-0.04zm0.1 0.11c-0.03,0.01 -0.04,0.01 -0.07,0.01 -0.04,0.01 -0.06,0 -0.08,-0.01 -0.01,0 0,0.01 -0.01,0.02 0,0.01 0,0 0,0.01 0,0.01 0.01,0.02 0.02,0.02 0.03,0.02 0.1,0.02 0.13,0 0.03,-0.01 0.01,-0.02 0.01,-0.03 0,-0.01 0,-0.02 0,-0.02zm0 0.05c-0.01,0.01 -0.01,0.01 -0.03,0.02 -0.05,0.01 -0.09,0 -0.12,-0.02 -0.01,0.01 0,0.01 -0.01,0.02 0,0.01 -0.01,0.02 0.02,0.03 0.03,0.02 0.1,0.02 0.13,0.01 0.01,-0.01 0.02,-0.01 0.02,-0.02 0,-0.02 -0.01,0 -0.01,-0.04zm-0.09 -0.15c-0.08,0.01 -0.05,0.05 0.03,0.04 0.08,-0.01 0.05,-0.04 -0.03,-0.04z"/>
 </g>
</svg>
