<?xml version="1.0" encoding="UTF-8"?>
<!DOCTYPE svg PUBLIC "-//W3C//DTD SVG 1.1//EN" "http://www.w3.org/Graphics/SVG/1.1/DTD/svg11.dtd">
<!-- Creator: CorelDRAW -->
<svg xmlns="http://www.w3.org/2000/svg" xml:space="preserve" width="3.9793mm" height="1.6595mm" version="1.1" style="shape-rendering:geometricPrecision; text-rendering:geometricPrecision; image-rendering:optimizeQuality; fill-rule:evenodd; clip-rule:evenodd"
viewBox="0 0 2.64 1.1"
 xmlns:xlink="http://www.w3.org/1999/xlink"
 xmlns:xodm="http://www.corel.com/coreldraw/odm/2003">
 <defs>
  <style type="text/css">
   <![CDATA[
    .fil0 {fill:#1ABC9C}
   ]]>
  </style>
 </defs>
 <g id="Camada_x0020_1">
  <metadata id="CorelCorpID_0Corel-Layer"/>
  <path class="fil0" d="M0.06 0.52l0 -0.03 0.01 0c0,0.01 -0,0.01 0,0.02 0.01,-0.01 0.01,-0.01 0.01,-0.02 0.01,-0 0.03,0.01 0.03,0.01l0 0.03c0.02,-0.01 -0,-0.03 0.04,-0.01 0,0.02 0,0.02 0.01,0.02l0 -0.02c0.01,0 0.01,0 0.02,0.01 0.01,0.01 0.01,0.01 0.01,0.02 0.01,0 0.01,-0 0.01,-0 0.01,0.01 0.02,0.03 0.02,0.04 -0.01,0 -0.02,0 -0.03,0 -0,-0.01 -0,-0.01 -0.01,-0.01l-0.01 0.01c-0.01,0 -0.04,0 -0.05,0 -0.01,-0.01 -0.01,-0.02 -0.01,-0.02l-0 0.02c-0.02,-0 -0.03,-0 -0.05,-0.01 -0.01,-0 -0.01,-0 -0.02,-0.01 -0,-0.01 -0,-0.01 -0.01,-0.02 -0,0 -0,0.01 -0.01,0.02 -0.03,-0 -0.03,-0.01 -0.03,-0.03 -0.01,0 -0.03,0.02 -0.03,0.03 -0,0.02 0.01,0.03 0.02,0.04 0.03,0.03 0.07,0.05 0.11,0.06 0.01,0 0.02,0 0.02,0.01 0.03,0.02 0.06,0.04 0.1,0.05 0.03,0.01 0.07,0.01 0.1,0.02 0.03,0.01 0.06,0.01 0.1,0.02 0.03,0.01 0.06,0.02 0.09,0.03 0.02,0.01 0.07,0.02 0.09,0.02 0,0.02 0.01,0.05 0.02,0.07 0.01,0.03 0.01,0.04 0.02,0.07 0.01,0.02 0.02,0.04 0.03,0.06 0.01,0.01 0.01,0.02 0.02,0.03l0.02 0.03c0.02,0 0.03,-0.01 0.05,-0.02 0,-0 0.01,-0.01 0.01,-0.01 0.02,0 0.05,-0.02 0.05,-0.04 0.02,0 0.02,-0.01 0.03,-0.03 0,-0.01 0.01,-0.01 0.01,-0.02 0.01,-0.01 0.01,-0.01 0.01,-0.02 0.02,-0.02 0.02,-0.08 0.02,-0.1 0.12,0 0.13,0.01 0.25,-0.01 0.01,-0 0.01,-0 0.02,-0 0,-0 0.01,-0 0.01,-0 0,-0 0,-0 0,-0l0 -0c0,-0 0,-0 0,-0 0.04,0.1 0.06,0.11 0.12,0.19 0.01,0.01 0.03,0.04 0.04,0.04 0.01,0 0.04,-0.02 0.05,-0.02 0.03,-0.01 0.04,-0.01 0.05,-0.04 0,-0.01 0.01,-0.01 0.01,-0.02 0.01,-0.01 0.01,-0.02 0,-0.03l0.01 -0c0,-0.02 0,-0.04 0,-0.06 -0,-0.01 -0.01,-0.04 -0.01,-0.05 -0.01,-0 -0.01,-0 -0.02,-0.01 -0.01,-0 -0.02,-0.01 -0.03,-0.01l-0.01 -0.01c0.06,-0.01 0.12,0.01 0.18,-0 0.01,-0 0.01,0 0.02,-0 0.01,-0 0.02,-0 0.03,-0 0.02,0 0.02,0 0.03,-0l0.03 0.04 0.09 0.09c0.02,0.02 0.06,0.05 0.08,0.07 0.01,0.01 0.06,0.04 0.07,0.04 0.01,0 0.02,-0.01 0.03,-0.01 0.01,-0 0.01,-0 0.01,-0 0.03,-0.01 0.01,0.01 0.04,-0.04 0.01,-0.01 0.02,-0.02 0.04,-0.03 0,-0 0,-0 0,-0 0,-0.01 0.01,-0.04 0.01,-0.05 0,-0 0.01,-0.01 0.01,-0.01 0,0 -0,0 -0,0.01l0.02 0c-0,-0.01 -0.01,-0.01 -0.01,-0.03 0,-0.01 0,-0.02 -0,-0.03 0,-0 0,-0 0,-0l0 -0c0,-0 0,-0 0,-0.01 -0.02,-0.01 -0.04,-0.02 -0.06,-0.03 -0.01,-0 -0,-0 -0.01,-0.01 -0.01,-0 -0.02,-0.01 -0.03,-0.01 -0.02,-0.01 -0.08,-0.04 -0.1,-0.05 0.04,-0 0.06,-0.01 0.1,-0 0.03,0 0.06,0.01 0.09,0.02 0.03,0.01 0.04,0.03 0.07,0.04l0.07 0.04c0.01,0.01 0.02,0.01 0.04,0.02 0.07,0.04 0.12,0.06 0.2,0.08 0.07,0.02 0.08,0 0.1,0 0,-0.01 0,-0.01 0,-0.02 -0,-0 -0,-0 -0,-0 -0,-0 0,-0 0,-0 0,-0.01 0,-0.01 -0,-0.01 0,-0 0.01,-0 0.01,-0.01l0.01 -0c-0,-0.02 0.01,-0.01 0.01,-0.03 -0.01,-0.01 -0,-0.01 -0.01,-0.01 -0,0 -0.01,0 -0.01,0.01l-0.01 -0.01c-0.01,0.02 -0,0 -0.04,0 -0.01,-0 -0.03,-0 -0.03,-0.01 -0,-0 -0,-0 -0.01,-0 -0,-0.01 -0.01,-0.01 -0.02,-0.01 -0.02,0 -0.01,0 -0.03,-0l0 0.01c-0.02,0 -0.02,0 -0.03,-0l-0 -0c-0,-0.01 -0.02,-0.01 -0.03,-0.01 -0.02,-0 -0.05,-0.01 -0.07,-0.02 -0.02,-0.01 -0.01,-0.01 -0.03,-0.02 0,0.01 0,0.01 0,0.01 -0.01,-0 -0.01,-0 -0.02,-0 -0.01,-0 -0.01,-0 -0.01,0 -0,0 0,0 -0,0 -0.01,-0 -0.01,-0.01 -0.02,-0.01 -0.01,-0 -0.01,-0 -0.02,-0.01 -0.01,-0 -0,0 -0.01,-0 -0.01,-0 -0.01,-0 -0.01,-0.01 -0,-0 -0.01,-0.01 -0.01,-0.01 -0,-0 -0.01,-0.01 -0.01,-0.01 0.03,0 0.06,0.02 0.07,0.02l-0.01 -0.01c-0.01,-0.01 -0.01,-0.01 -0.01,-0.01 -0.02,0.01 -0.02,-0.01 -0.04,-0.02 -0.01,-0.01 -0.01,-0.01 0,-0.01l0.02 0.01c0.01,0 0,0 0,0.01 0.02,0 0.01,0 0.02,0 0.05,0.01 0.12,0.02 0.17,0.03 0.01,0 0.02,0 0.02,0.01 0.01,0.02 0.03,0.01 0.04,0.01 0.01,0 0.01,0 0.03,0 0.02,-0 0.01,-0.01 0.05,-0.01 0.01,0 0.04,0 0.05,-0 0,-0.01 0,-0.01 0,-0.02l0.01 -0c-0,-0 -0,-0.01 -0,-0.01 -0.02,0 -0.03,0.01 -0.05,0.01l-0.11 -0.01c-0.06,-0.01 -0.05,-0.01 -0.1,-0.02 -0.02,-0 -0.03,-0.01 -0.05,-0.01 -0.04,-0.01 -0.04,-0.01 -0.08,-0.01 -0.01,0 -0.02,0 -0.02,0.01 -0.01,-0.01 -0.01,-0.01 -0.03,-0.02 0.02,-0 0.03,0 0.05,0.01 0.01,0 0.01,-0.01 0.03,-0 0,0 0.01,0 0.01,-0 -0.01,-0.01 -0.03,-0.01 -0.03,-0.01 -0,-0 -0.01,-0 -0.01,-0 0,0.01 0,0 0.01,0.01 -0,-0 -0.01,-0 -0.02,-0 -0.01,-0 -0.01,-0 -0.01,-0.01l-0.02 -0c-0.01,-0.01 0.02,0.01 0.05,-0 0,-0 0,0 0.01,-0 0.01,-0 0,-0.01 0.02,0 0.01,-0 0.03,0 0.05,0 0.02,0 0.12,0.01 0.14,0.02 0.01,0 0,0 0.01,0 0.01,0.01 0.01,0.01 0.04,0.01 0.02,-0 0.03,0.01 0.05,-0 0.02,-0.01 0.03,-0.01 0.05,-0.01 0.01,-0 0.03,-0 0.05,-0.01 0,-0.01 0,-0.02 0,-0.02l0.01 -0c-0.01,-0.02 -0.01,-0.01 -0.04,-0 -0.02,0 -0.09,0.01 -0.12,0 -0.02,-0 -0.04,-0 -0.06,-0 -0.01,-0 -0.02,-0 -0.03,-0.01 -0.01,-0 -0.02,-0 -0.03,-0 -0.04,-0.01 -0.07,-0.01 -0.11,-0.01 -0.01,0 -0.01,0.01 -0.03,0 -0.01,-0 -0.02,-0 -0.03,-0.01l0.01 -0.01c0,-0 0.01,-0 0.01,-0 0.01,-0 0.01,-0 0.02,-0.01l-0.04 -0c0,-0 0.01,-0.01 0.02,-0.01l0.01 -0c-0.02,-0.01 -0.05,0.01 -0.05,-0 0.01,-0.01 0.05,-0.01 0.07,-0.02 -0,-0.01 -0.01,-0 -0,-0.02 -0.02,0 -0.05,0.01 -0.07,0.01 0,-0 0.01,-0 0.01,-0 0.02,-0 0.03,-0.01 0.04,-0.01 0.03,-0 0.03,-0 0.05,-0.01 0.03,-0.01 0.05,-0.02 0.08,-0.03 0.01,-0 0.01,-0 0.01,-0.01 0.02,-0.01 0.05,-0.02 0.07,-0.03l0.03 -0.01c0.02,-0 0.04,-0.01 0.05,-0.01 0.02,-0 0.04,-0 0.06,-0l0 -0.01 -0.01 -0c0,-0.01 -0,-0.02 -0.01,-0.02 -0.02,0 -0.08,0.01 -0.09,0.01 -0.02,-0 -0.04,0.01 -0.06,0.01 -0.01,0 -0.02,0 -0.02,0.01 -0.01,0.01 -0,0.01 -0.02,0.02 -0.01,0 -0.02,0.01 -0.03,0.01 -0.02,0.01 -0.13,0.05 -0.15,0.06 -0.01,0.01 -0.01,0 -0.02,0.01 -0.01,0 -0.02,0.01 -0.03,-0 0.01,-0.01 0.04,-0.02 0.05,-0.03 -0.01,-0 -0.03,0.01 -0.05,0l-0.01 -0c0.01,-0 0.02,-0 0.03,-0.01 0.01,-0 0.02,-0.01 0.03,-0.01 0.02,-0.01 0.03,-0.01 0.05,-0.02 0.03,-0.02 0.06,-0.03 0.09,-0.05l0.01 0.01 0.01 -0c0,-0 0,0 -0,-0 -0,-0 0,0 -0,-0 0.01,-0 0.02,-0.01 0.03,-0.02 0.02,-0.01 0.1,-0.04 0.12,-0.04 -0.01,0 -0,0 -0.02,0.01 -0.01,0 -0.01,0 -0.02,0.01 0.02,0 0.03,-0.01 0.05,-0 0,-0 0,-0 0,-0 0,0 0,-0.01 0.02,-0.01l-0.01 -0.01c-0,-0.01 -0,-0.01 -0.01,-0.01 -0,-0.01 -0,-0.01 -0.01,-0.02 -0.01,-0.01 -0.01,-0.01 -0.01,-0.02 -0.03,-0 -0.05,0 -0.07,0.01 -0.1,0.03 -0.07,0.01 -0.17,0.07 -0.03,0.02 -0.07,0.04 -0.11,0.05 -0.02,0.01 -0.05,0.01 -0.07,0.01 -0.02,0 -0.05,-0 -0.08,-0 -0.05,-0.01 -0.1,-0.01 -0.14,-0.01 -0.07,-0.01 -0.37,-0.05 -0.4,-0.07 0.01,-0 0.07,-0.01 0.08,-0.02 -0.01,-0.01 -0.02,-0.02 -0.03,-0.01 -0.02,0.01 -0.01,-0 -0.02,-0 -0,0 -0.01,0 -0.01,0 0,0.01 0,0 0.01,0.01 -0.02,0.01 -0.06,0.01 -0.08,0.02 -0,-0.02 0.05,-0.04 0.06,-0.06l-0.01 0c0,-0 0,-0 0.01,-0.01 0.01,-0 0.01,-0 0.01,0 0.01,-0.01 0.01,-0 0.01,-0.02 0.02,-0.01 0,-0 0.02,-0 0.01,-0 0.02,-0.02 0.04,-0.03 0.01,-0 0.01,-0 0.01,-0.01 0,0.01 0.01,0.01 0.02,0.02l-0 -0.02c0,-0 0.01,-0 0.01,-0 0,-0 0,-0 0.01,-0l0.01 -0c-0.01,-0 -0.02,0 -0.03,-0.01 -0.01,-0.01 -0,-0.01 -0.03,-0.01l-0 -0.01c0,-0 0,-0 0,-0 0.01,-0.01 0.01,-0.01 0.02,-0.02 -0.01,0 -0.01,0 -0.02,0.01 -0.01,0 -0.01,0.01 -0.02,0l-0 -0.02c0.01,-0 0.02,-0.01 0.02,-0.02 -0.02,0 -0.01,0.01 -0.02,0.01 -0.01,-0 -0.01,-0.01 -0.02,-0.01 0,-0.01 0.01,-0.01 0.01,-0.02 -0.01,0 -0.01,0.01 -0.02,0.01 -0,-0.01 -0.01,-0.02 -0.01,-0.02 0,-0 0.01,-0.01 0.02,-0.02 -0.01,0 -0.01,0 -0.02,0.01l-0.01 0.01c-0,0 -0,0 -0,0l-0 -0c-0,-0 0,-0 0,-0.01 -0.01,-0 -0.01,-0 -0.02,-0.01 -0,-0 -0,-0 -0,-0 -0,-0 -0,-0 -0,-0 0.01,-0.01 0.02,-0.02 0.02,-0.03 -0.01,0 -0.02,0.01 -0.03,0.01 -0.01,-0.01 -0,-0.01 -0.01,-0.01 -0.01,-0 -0.01,-0 -0.02,-0.01 0,-0.01 0,-0 0.01,-0.01 -0.01,0 -0.02,0.01 -0.02,0.01 -0.01,-0 -0.01,-0.01 -0.02,-0.02 0.01,-0.01 0.01,-0.01 0.01,-0.02 -0.01,0 -0.02,0.01 -0.03,0 -0,-0 0,-0 -0,-0 -0,-0 -0,-0 -0,-0 -0,-0 -0,-0 -0,-0l-0 -0c0.01,-0 0.02,-0.01 0.02,-0.02 -0.02,0 -0.06,0.04 -0.07,0.05 -0.01,0.01 -0.02,0.02 -0.03,0.02l-0.12 0.11c-0.02,0.02 -0.05,0.04 -0.06,0.06 -0.01,0.01 -0.02,0.02 -0.03,0.03 -0.03,0.03 -0.05,0.02 -0.1,0.02 -0.04,0 -0.08,0 -0.12,0 -0.02,0 -0.03,0 -0.05,0l-0.09 0c-0.01,-0 -0.02,-0 -0.03,0 -0.02,0 -0.03,0.01 -0.05,0.01 -0.05,0.01 -0.15,0.02 -0.2,0.04 -0.02,0 -0.03,0.01 -0.05,0.01 -0.02,0 -0.04,0 -0.05,0.01 -0.03,0.01 -0.07,0.01 -0.1,0.02 -0.02,0 -0.03,0.01 -0.05,0.01 -0.03,0 -0.13,0.03 -0.14,0.04 -0.03,0.03 -0,0.05 0,0.08zm2.19 0.06c-0,-0.01 -0.01,-0 -0.01,-0l0 0.01c-0,0 -0,0 -0.01,0 0,0 0.01,0.01 0.01,0.01 0.01,0 0.04,0 0.05,-0 0.01,-0.01 0.03,-0.01 0.05,-0.01 0.06,-0.02 0.06,-0.03 0.13,-0.04l0.1 -0.01c0.02,-0 0.04,0 0.06,0l0 -0.01 -0 -0c-0,-0 -0,-0 -0,-0l-0 -0c0,-0.01 -0,-0.02 -0,-0.02 -0.02,-0 -0.04,-0 -0.06,0 -0.05,0 -0.03,-0 -0.05,-0 -0.01,0 -0.01,0 -0.02,0.01 -0.02,0 -0.03,-0 -0.04,0.01 -0,0.01 0,0 -0.02,0.01l-0.17 0.05c-0.01,0 -0,0 -0.01,0.01zm-0.99 0.23c-0,0 -0.01,0.01 -0.01,0.01 -0.01,-0.01 -0,-0.01 -0.02,-0.01 0,0.02 0.01,0.01 0.01,0.01l-0 0c0,0.01 0.01,0.01 0.01,0.01 0.01,0 0,-0 0.01,0 0.01,0 0,0 0.01,0.01 -0.01,-0.01 -0.01,-0.01 -0.02,-0.02 -0,-0 -0,-0 -0,-0l0 -0.01 0.04 0.04c0,0 0.03,0.02 0.03,0.02 0,-0 0,-0 -0,-0.01 0.01,0.01 0.02,0.02 0.03,0.03 0,0.01 0.02,0.03 0.03,0.03 -0.01,0 -0.02,-0.01 -0.03,-0.02 0,0.01 0.03,0.03 0.05,0.04 0.01,0 0.01,0.01 0.02,0.01 -0,-0.01 -0.01,-0.01 -0.02,-0.02 -0,-0 -0.01,-0 -0.01,-0 0.01,-0.01 0.01,-0 0.01,-0 -0,-0.01 -0.02,-0.02 -0.02,-0.02l0 -0.03 0 0.02 0.01 0c-0,-0 -0,-0.01 -0,-0.02 0.01,0.01 0,0.01 0.04,0.02 0.02,0.01 0.03,0.02 0.05,0.02 -0,-0 -0,-0 -0.01,-0.01 -0,-0 -0.01,-0 -0.01,-0.01 -0.01,-0.01 -0.07,-0.04 -0.08,-0.05 -0.02,-0.02 -0.02,-0.01 -0.03,-0.02 -0.01,-0.01 -0.01,-0.01 -0.01,-0.02 -0.01,-0.01 -0,-0 -0.01,-0.01 -0.01,0.01 0.01,0.01 0.02,0.03 -0.01,-0.01 -0.01,-0 -0.03,-0.03 -0,0 -0,0 -0,0 -0,0 -0,0 -0.01,0.01 -0.01,0 -0.02,-0.01 -0.02,-0.02 -0,0 -0,0.01 -0.01,-0 -0,-0 -0.01,-0.01 -0.01,-0.01l0 0.01zm0.15 -0.46c0.01,-0.01 0.03,-0.02 0.04,-0.03 0.01,-0.01 0.03,-0.02 0.04,-0.03 0.03,-0.02 0.05,-0.02 0.07,-0.04 0.01,-0.01 0.01,-0.01 0.03,-0.01l0.01 -0.01 -0.01 -0.01c-0.01,-0.01 -0.01,-0 -0.02,-0.01 -0,-0 -0,-0 -0,-0l-0 -0.01c-0.03,0.02 -0.03,0.03 -0.06,0.05 -0,0 -0,0.01 -0.01,0.01l-0.04 0.03c-0,0 -0.01,0.01 -0.01,0.01 -0.01,0.01 -0.04,0.02 -0.04,0.03zm0.6 0.53c0.01,0.01 0.04,0.03 0.07,0.04 0.01,-0.01 0,-0.01 0.02,-0.02 -0.01,-0 -0.06,-0.03 -0.07,-0.03 -0,0 -0,0 -0,0 -0,0 -0,-0 -0,0.01z"/>
 </g>
</svg>
